<?xml version="1.0" encoding="UTF-8"?>
<svg id="Layer_2" data-name="Layer 2" xmlns="http://www.w3.org/2000/svg" viewBox="0 0 135.2 214.91">
  <defs>
    <style>
      .cls-1 {
        fill: #ff832b;
      }
    </style>
  </defs>
  <g id="OBJECTS">
    <path class="cls-1" d="M132.37,213.49l2.82-4.88-13.3-7.7v-7.92c-13.62,0-19.71-4.7-21-20.07l20.54,11.89,2.82-4.88-23.62-13.68c0-.16,0-.3,0-.46v-16.77l20.81,12.05,2.82-4.88-23.63-13.68v-17.23l20.81,12.05,2.82-4.88-23.63-13.68v-17.23l20.81,12.05,2.82-4.88-23.63-13.68v-17.23l20.81,12.05,2.82-4.88-23.63-13.68v-17.23l20.81,12.05,2.82-4.88-23.63-13.68v-17.23l20.81,12.05,2.82-4.88-23.63-13.68V6.6l20.81,12.05,2.82-4.88L100.47,0l-.29.5C76.4,13.81,47.43,18.76,0,19.5v8.32c24.97,0,32.55,4.62,32.55,40.88v93.22c0,24.6-12.21,31.07-32.55,31.07v7.95c.09,0,.19,0,.27,0l-.12.2,23.78,13.77,2.82-4.88-16.24-9.4c4.27-.13,9.05-.28,14.25-.43l22.96,13.29,2.82-4.88-15.02-8.7c4.95-.12,10.12-.22,15.43-.3l-.06.11,23.78,13.77,2.82-4.88-15.75-9.12c2.65-.02,5.32-.03,7.99-.03s5.47.02,8.22.06l-.12.2,23.78,13.77,2.82-4.88-15.33-8.87c7.55.2,14.69.47,20.75.72l22.51,13.03Z"/>
  </g>
</svg>